<svg id="color" enable-background="new 0 0 24 24" height="512" viewBox="0 0 24 24" width="512" xmlns="http://www.w3.org/2000/svg"><path d="m12 10c-.414 0-.75-.336-.75-.75v-5.75c0-.414.336-.75.75-.75s.75.336.75.75v5.75c0 .414-.336.75-.75.75z" fill="#607d8b"/><path d="m20.901 17.628c-2.015-3.524-5.342-5.628-8.901-5.628s-6.886 2.104-8.901 5.628c-.132.231-.132.514 0 .744 2.015 3.524 5.342 5.628 8.901 5.628s6.886-2.104 8.901-5.628c.132-.23.132-.514 0-.744z" fill="#2196f3"/><path d="m12 21c-1.654 0-3-1.346-3-3s1.346-3 3-3 3 1.346 3 3-1.346 3-3 3z" fill="#fff"/><path d="m11.25 3.854v5.396c0 .414.336.75.75.75v-6c-.265 0-.518-.052-.75-.146z" fill="#546d79"/><path d="m12 12c-3.559 0-6.886 2.104-8.901 5.628-.132.231-.132.514 0 .744 2.015 3.524 5.342 5.628 8.901 5.628v-3c-1.654 0-3-1.346-3-3s1.346-3 3-3z" fill="#1d83d4"/><path d="m12 15c-1.654 0-3 1.346-3 3s1.346 3 3 3z" fill="#dedede"/><path d="m7.22 9.78-2.75-2.75c-.141-.14-.22-.331-.22-.53v-3c0-.414.336-.75.75-.75s.75.336.75.75v2.689l2.53 2.53c.293.293.293.768 0 1.061s-.767.293-1.06 0z" fill="#607d8b"/><path d="m15.72 9.78c-.293-.293-.293-.768 0-1.061l2.53-2.53v-2.689c0-.414.336-.75.75-.75s.75.336.75.75v3c0 .199-.079.39-.22.53l-2.75 2.75c-.293.293-.767.293-1.06 0z" fill="#607d8b"/><path d="m5 2.75c-.414 0-.75.336-.75.75v3c0 .199.079.39.22.53l2.75 2.75c.293.293.768.293 1.061 0l-3.281-3.28z" fill="#546d79"/><path d="m19 2.75c-.414 0-.75.336-.75.75v2.689l-2.53 2.53c-.293.293-.293.768 0 1.061l3.28-3.28z" fill="#546d79"/><g fill="#2196f3"><path d="m5 4c-1.103 0-2-.897-2-2s.897-2 2-2 2 .897 2 2-.897 2-2 2z"/><path d="m19 4c-1.103 0-2-.897-2-2s.897-2 2-2 2 .897 2 2-.897 2-2 2z"/><path d="m12 4c-1.103 0-2-.897-2-2s.897-2 2-2 2 .897 2 2-.897 2-2 2z"/></g><g fill="#1d83d4"><path d="m12 0c-1.103 0-2 .897-2 2 0 .838.518 1.557 1.25 1.854.232.094.485.146.75.146z"/><path d="m5 0c-1.103 0-2 .897-2 2 0 .838.518 1.557 1.25 1.854.232.094.485.146.75.146z"/><path d="m19 0c-1.103 0-2 .897-2 2 0 .838.518 1.557 1.25 1.854.232.094.485.146.75.146z"/></g></svg>